<svg width="90" height="79" viewBox="0 0 90 79" fill="none" xmlns="http://www.w3.org/2000/svg">
<path d="M77.4024 7.14039C77.4343 8.97076 76.7786 10.8131 75.4275 12.2325L61.1285 27.2544L59.202 29.2784C56.8966 31.253 53.9326 32.4679 50.6808 32.5246C45.9007 32.6081 41.65 30.175 39.1684 26.4315L40.8058 28.0357L59.4582 8.43584L65.2962 2.30266C67.9983 -0.536131 72.4558 -0.613936 75.2554 2.12882C76.6508 3.49596 77.3704 5.31002 77.4024 7.14039Z" fill="#9E0EB3"/>
<path d="M59.2028 29.2744L50.9421 37.9571L44.5829 44.6379C42.6897 46.6268 39.5695 46.6813 37.608 44.7597L19.3244 26.8514C16.5032 24.0875 16.257 19.4692 18.9756 16.6C20.3265 15.172 22.1227 14.4384 23.9269 14.4069C25.7311 14.3754 27.5475 15.0416 28.9473 16.413L39.1692 26.4275C39.8346 27.0793 40.2443 27.4426 40.8067 28.0316C43.3284 30.6715 46.7761 32.5931 50.686 32.5248C53.9334 32.4638 56.8976 31.2532 59.2028 29.2744Z" fill="#C930BE"/>
<path d="M89.9883 64.4789H79.6667C79.8157 65.3891 80.212 66.1149 80.8554 66.6562C81.5066 67.1898 82.3344 67.4566 83.3387 67.4566C84.5391 67.4566 85.5709 67.0368 86.434 66.1972L89.1409 67.4683C88.4661 68.4256 87.658 69.1356 86.7164 69.5986C85.7749 70.0536 84.6568 70.2812 83.3622 70.2812C81.3536 70.2812 79.7177 69.6496 78.4544 68.3863C77.1912 67.1152 76.5596 65.5264 76.5596 63.6198C76.5596 61.6661 77.1873 60.0458 78.4427 58.7591C79.7059 57.4644 81.2869 56.8171 83.1857 56.8171C85.2021 56.8171 86.842 57.4644 88.1052 58.7591C89.3685 60.0458 90.0001 61.7485 90.0001 63.8669L89.9883 64.4789ZM86.7635 61.9485C86.5517 61.2345 86.1319 60.6539 85.5042 60.2067C84.8844 59.7595 84.1625 59.5358 83.3387 59.5358C82.4442 59.5358 81.6596 59.7869 80.9848 60.2891C80.5611 60.6029 80.1688 61.1561 79.8079 61.9485H86.7635Z" fill="url(#paint0_linear_115_405)"/>
<path d="M70.713 57.1467H73.9142V68.1156C73.9142 70.2812 73.4787 71.8739 72.6078 72.894C71.4387 74.2749 69.6773 74.9653 67.3234 74.9653C66.068 74.9653 65.0127 74.8084 64.1575 74.4946C63.3022 74.1807 62.5804 73.7178 61.9919 73.1058C61.4035 72.5016 60.968 71.7641 60.6855 70.8932H64.2281C64.5419 71.2541 64.946 71.5248 65.4403 71.7053C65.9346 71.8936 66.5192 71.9877 67.194 71.9877C68.057 71.9877 68.7514 71.8543 69.2771 71.5876C69.8028 71.3208 70.1716 70.9756 70.3834 70.5519C70.6031 70.1282 70.713 69.3985 70.713 68.3628C70.148 68.9277 69.5556 69.3357 68.9358 69.5868C68.316 69.83 67.6137 69.9516 66.8291 69.9516C65.1108 69.9516 63.6592 69.3318 62.4745 68.0921C61.2897 66.8524 60.6973 65.2832 60.6973 63.3844C60.6973 61.3522 61.325 59.7202 62.5804 58.4884C63.7181 57.3742 65.0755 56.8171 66.6526 56.8171C67.3901 56.8171 68.0845 56.9544 68.7357 57.2291C69.3948 57.4958 70.0539 57.9391 70.713 58.559V57.1467ZM67.3823 59.8183C66.3701 59.8183 65.5345 60.1596 64.8754 60.8422C64.2163 61.517 63.8868 62.3683 63.8868 63.3962C63.8868 64.4632 64.2242 65.3381 64.8989 66.0207C65.5737 66.7033 66.4211 67.0446 67.4411 67.0446C68.4376 67.0446 69.2575 66.7112 69.9009 66.0442C70.5521 65.3773 70.8777 64.5025 70.8777 63.4197C70.8777 62.3526 70.5521 61.4856 69.9009 60.8187C69.2496 60.1518 68.4101 59.8183 67.3823 59.8183Z" fill="url(#paint1_linear_115_405)"/>
<path d="M54.8 57.1467H58.0012V69.9516H54.8V68.5982C54.1723 69.1945 53.5407 69.626 52.9051 69.8928C52.2774 70.1517 51.5948 70.2812 50.8573 70.2812C49.2017 70.2812 47.7698 69.6417 46.5615 68.3628C45.3532 67.076 44.749 65.4793 44.749 63.5727C44.749 61.5955 45.3336 59.9752 46.5026 58.712C47.6717 57.4488 49.0919 56.8171 50.7631 56.8171C51.532 56.8171 52.2539 56.9623 52.9287 57.2526C53.6034 57.5429 54.2272 57.9784 54.8 58.559V57.1467ZM51.4222 59.783C50.4257 59.783 49.598 60.1361 48.9389 60.8422C48.2798 61.5405 47.9503 62.4389 47.9503 63.5374C47.9503 64.6437 48.2837 65.5539 48.9507 66.2679C49.6254 66.9819 50.4532 67.3389 51.434 67.3389C52.4461 67.3389 53.2857 66.9897 53.9526 66.2914C54.6195 65.5852 54.953 64.6633 54.953 63.5256C54.953 62.4115 54.6195 61.5092 53.9526 60.8187C53.2857 60.1282 52.4422 59.783 51.4222 59.783Z" fill="url(#paint2_linear_115_405)"/>
<path d="M38.4993 52.428H41.7005V57.1475H43.6071V59.9132H41.7005V69.9524H38.4993V59.9132H36.8516V57.1475H38.4993V52.428Z" fill="url(#paint3_linear_115_405)"/>
<path d="M23.6309 57.1467H26.8321V58.4531C27.5618 57.8411 28.2209 57.4174 28.8093 57.182C29.4056 56.9388 30.0137 56.8171 30.6336 56.8171C31.9047 56.8171 32.9835 57.2604 33.8701 58.1471C34.6155 58.9003 34.9882 60.0145 34.9882 61.4895V69.9516H31.8105V64.3377C31.8105 62.8077 31.7399 61.7916 31.5987 61.2895C31.4653 60.7873 31.226 60.4068 30.8807 60.1478C30.5433 59.8811 30.1236 59.7477 29.6214 59.7477C28.9702 59.7477 28.4092 59.9674 27.9384 60.4068C27.4755 60.8383 27.1538 61.4385 26.9733 62.2075C26.8792 62.6076 26.8321 63.4746 26.8321 64.8085V69.9516H23.6309V57.1467Z" fill="url(#paint4_linear_115_405)"/>
<path d="M19.1025 51.874C19.6675 51.874 20.15 52.078 20.5502 52.486C20.9582 52.894 21.1622 53.3883 21.1622 53.969C21.1622 54.5417 20.9621 55.0321 20.5619 55.4401C20.1618 55.8403 19.6832 56.0403 19.1261 56.0403C18.5533 56.0403 18.0629 55.8363 17.6549 55.4283C17.2548 55.0125 17.0547 54.5103 17.0547 53.9219C17.0547 53.357 17.2548 52.8744 17.6549 52.4743C18.0551 52.0741 18.5376 51.874 19.1025 51.874ZM17.4902 57.1467H20.7149V69.9516H17.4902V57.1467Z" fill="url(#paint5_linear_115_405)"/>
<path d="M0 52.6392H3.38955L7.74418 64.938L12.1577 52.6392H15.5472L9.30949 69.9517H6.13179L0 52.6392Z" fill="url(#paint6_linear_115_405)"/>
<path d="M55.4375 73.0859H55.9949L57.4034 76.242L58.7706 73.0859H59.3317L56.8875 78.6825H56.3301L57.121 76.8747L55.4375 73.0859Z" fill="black"/>
<path d="M47.5498 73.0867H48.0733V73.7947C48.2566 73.5336 48.4449 73.3428 48.6382 73.2222C48.9044 73.0615 49.1843 72.9812 49.4781 72.9812C49.6764 72.9812 49.8647 73.0201 50.043 73.098C50.2213 73.1758 50.3669 73.28 50.4799 73.4105C50.5929 73.5386 50.6908 73.7231 50.7736 73.9642C50.9494 73.6428 51.1691 73.3992 51.4327 73.2335C51.6964 73.0653 51.9801 72.9812 52.2839 72.9812C52.5676 72.9812 52.8174 73.0528 53.0333 73.1959C53.2518 73.339 53.4137 73.5386 53.5192 73.7947C53.6246 74.0508 53.6774 74.4349 53.6774 74.9471V77.1842H53.1388V74.9471C53.1388 74.5078 53.1074 74.2065 53.0446 74.0433C52.9819 73.8775 52.8739 73.7445 52.7207 73.644C52.5701 73.5436 52.3893 73.4934 52.1784 73.4934C51.9223 73.4934 51.6876 73.5687 51.4741 73.7194C51.2632 73.87 51.1088 74.0709 51.0109 74.322C50.913 74.573 50.864 74.9923 50.864 75.5799V77.1842H50.3405V75.0865C50.3405 74.5919 50.3091 74.2567 50.2464 74.0809C50.1861 73.9027 50.0794 73.7608 49.9263 73.6553C49.7731 73.5474 49.5911 73.4934 49.3802 73.4934C49.1366 73.4934 48.9081 73.5675 48.6947 73.7156C48.4838 73.8612 48.3269 74.0583 48.2239 74.3069C48.1235 74.5555 48.0733 74.9358 48.0733 75.448V77.1842H47.5498V73.0867Z" fill="black"/>
<path d="M44.9122 75.8247L45.3567 76.0582C45.211 76.3444 45.0428 76.5754 44.852 76.7511C44.6612 76.9269 44.4465 77.0612 44.208 77.1541C43.9695 77.2445 43.6995 77.2897 43.3983 77.2897C42.7304 77.2897 42.2081 77.0713 41.8315 76.6344C41.4549 76.195 41.2666 75.6991 41.2666 75.1467C41.2666 74.627 41.426 74.1638 41.7449 73.757C42.1491 73.2398 42.6902 72.9812 43.3681 72.9812C44.0661 72.9812 44.6235 73.2461 45.0403 73.7759C45.3366 74.15 45.4872 74.617 45.4922 75.1769H41.8089C41.819 75.6539 41.9709 76.0456 42.2646 76.3519C42.5584 76.6557 42.9212 76.8076 43.3531 76.8076C43.5615 76.8076 43.7636 76.7712 43.9594 76.6984C44.1578 76.6256 44.326 76.5289 44.4641 76.4084C44.6022 76.2879 44.7516 76.0933 44.9122 75.8247ZM44.9122 74.7212C44.8419 74.44 44.739 74.2152 44.6034 74.047C44.4704 73.8788 44.2933 73.7432 44.0724 73.6403C43.8514 73.5373 43.6192 73.4859 43.3757 73.4859C42.9739 73.4859 42.6287 73.6152 42.34 73.8738C42.1291 74.0621 41.9696 74.3446 41.8617 74.7212H44.9122Z" fill="black"/>
<path d="M39.1821 71.5042V77.1835H38.6624V76.4793C38.4414 76.7479 38.1929 76.95 37.9167 77.0856C37.643 77.2212 37.343 77.289 37.0166 77.289C36.4366 77.289 35.9407 77.0793 35.5289 76.66C35.1197 76.2382 34.915 75.726 34.915 75.1234C34.915 74.5334 35.1222 74.0287 35.5365 73.6094C35.9507 73.1901 36.4491 72.9805 37.0316 72.9805C37.3681 72.9805 37.6719 73.052 37.943 73.1952C38.2167 73.3383 38.4565 73.5529 38.6624 73.8392V71.5042H39.1821ZM37.0731 73.4889C36.7793 73.4889 36.5081 73.5617 36.2596 73.7074C36.011 73.8505 35.8126 74.0526 35.6645 74.3137C35.5189 74.5748 35.4461 74.851 35.4461 75.1423C35.4461 75.431 35.5201 75.7072 35.6683 75.9708C35.8164 76.2345 36.0148 76.4403 36.2633 76.5885C36.5144 76.7341 36.7831 76.8069 37.0693 76.8069C37.358 76.8069 37.6317 76.7341 37.8903 76.5885C38.1489 76.4428 38.3473 76.2458 38.4854 75.9972C38.626 75.7486 38.6963 75.4687 38.6963 75.1573C38.6963 74.6828 38.5393 74.2861 38.2255 73.9672C37.9142 73.6484 37.53 73.4889 37.0731 73.4889Z" fill="black"/>
<path d="M32.8188 73.0867V77.1842H32.2991V76.48C32.0781 76.7486 31.8296 76.9507 31.5534 77.0863C31.2797 77.2219 30.9797 77.2897 30.6533 77.2897C30.0733 77.2897 29.5774 77.08 29.1656 76.6607C28.7564 76.2389 28.5518 75.7267 28.5518 75.1241C28.5518 74.5341 28.7589 74.0295 29.1732 73.6102C29.5875 73.1909 30.0858 72.9812 30.6683 72.9812C31.0048 72.9812 31.3086 73.0528 31.5798 73.1959C31.8534 73.339 32.0932 73.5537 32.2991 73.8399V73.0867H32.8188ZM30.7098 73.4896C30.416 73.4896 30.1448 73.5624 29.8963 73.7081C29.6477 73.8512 29.4494 74.0533 29.3012 74.3144C29.1556 74.5755 29.0828 74.8517 29.0828 75.143C29.0828 75.4317 29.1569 75.7079 29.305 75.9715C29.4531 76.2352 29.6515 76.4411 29.9 76.5892C30.1511 76.7348 30.4198 76.8076 30.706 76.8076C30.9947 76.8076 31.2684 76.7348 31.527 76.5892C31.7856 76.4436 31.984 76.2465 32.1221 75.9979C32.2627 75.7493 32.333 75.4694 32.333 75.158C32.333 74.6835 32.1761 74.2868 31.8622 73.9679C31.5509 73.6491 31.1667 73.4896 30.7098 73.4896Z" fill="black"/>
<path d="M26.6467 73.9378L26.2286 74.1977C25.8671 73.7181 25.3737 73.4783 24.7485 73.4783C24.2489 73.4783 23.8334 73.639 23.5019 73.9604C23.173 74.2818 23.0086 74.6722 23.0086 75.1317C23.0086 75.4305 23.0839 75.7117 23.2345 75.9753C23.3877 76.2389 23.5961 76.4436 23.8597 76.5892C24.1259 76.7348 24.4234 76.8076 24.7523 76.8076C25.3549 76.8076 25.847 76.5678 26.2286 76.0883L26.6467 76.3632C26.4508 76.657 26.1872 76.8855 25.8558 77.0487C25.5269 77.2093 25.1515 77.2897 24.7297 77.2897C24.0819 77.2897 23.5446 77.0838 23.1178 76.672C22.691 76.2603 22.4775 75.7594 22.4775 75.1693C22.4775 74.7726 22.5767 74.4048 22.7751 74.0659C22.9759 73.7244 23.2509 73.4582 23.5999 73.2674C23.9489 73.0766 24.3393 72.9812 24.7711 72.9812C25.0423 72.9812 25.3034 73.0226 25.5545 73.1055C25.8081 73.1883 26.0228 73.2963 26.1985 73.4294C26.3743 73.5624 26.5237 73.7319 26.6467 73.9378Z" fill="black"/>
<path d="M18.2247 71.6443L20.8083 77.1843H20.2133L19.3433 75.3615H16.9555L16.0893 77.1843H15.4717L18.0892 71.6443H18.2247ZM18.157 72.8193L17.2041 74.8267H19.0985L18.157 72.8193Z" fill="black"/>
<path d="M7.82812 72.1828V71.6443H10.8674V72.1828H9.63212V77.1843H9.06719V72.1828H7.82812Z" fill="black"/>
<path d="M5.47363 71.6443H6.02726V77.1843H5.47363V71.6443Z" fill="black"/>
<defs>
<linearGradient id="paint0_linear_115_405" x1="45.2585" y1="45.6071" x2="45.2585" y2="75.2544" gradientUnits="userSpaceOnUse">
<stop stop-color="#9E0EB3"/>
<stop offset="1" stop-color="#C930BE"/>
</linearGradient>
<linearGradient id="paint1_linear_115_405" x1="45.2612" y1="45.6072" x2="45.2612" y2="75.2544" gradientUnits="userSpaceOnUse">
<stop stop-color="#9E0EB3"/>
<stop offset="1" stop-color="#C930BE"/>
</linearGradient>
<linearGradient id="paint2_linear_115_405" x1="45.2603" y1="45.6071" x2="45.2603" y2="75.2544" gradientUnits="userSpaceOnUse">
<stop stop-color="#9E0EB3"/>
<stop offset="1" stop-color="#C930BE"/>
</linearGradient>
<linearGradient id="paint3_linear_115_405" x1="45.26" y1="45.6079" x2="45.26" y2="75.2552" gradientUnits="userSpaceOnUse">
<stop stop-color="#9E0EB3"/>
<stop offset="1" stop-color="#C930BE"/>
</linearGradient>
<linearGradient id="paint4_linear_115_405" x1="45.2562" y1="45.6072" x2="45.2562" y2="75.2544" gradientUnits="userSpaceOnUse">
<stop stop-color="#9E0EB3"/>
<stop offset="1" stop-color="#C930BE"/>
</linearGradient>
<linearGradient id="paint5_linear_115_405" x1="45.259" y1="45.6071" x2="45.259" y2="75.2544" gradientUnits="userSpaceOnUse">
<stop stop-color="#9E0EB3"/>
<stop offset="1" stop-color="#C930BE"/>
</linearGradient>
<linearGradient id="paint6_linear_115_405" x1="45.258" y1="45.6073" x2="45.258" y2="75.2545" gradientUnits="userSpaceOnUse">
<stop stop-color="#9E0EB3"/>
<stop offset="1" stop-color="#C930BE"/>
</linearGradient>
</defs>
</svg>
