<svg width="552" height="139" viewBox="0 0 552 139" fill="none" xmlns="http://www.w3.org/2000/svg">
<g clip-path="url(#clip0_20_2)">
<path d="M153.292 38.7188C153.372 43.3416 151.716 47.9947 148.304 51.5795L112.19 89.519L107.325 94.6308C101.502 99.6177 94.0162 102.686 85.8034 102.829C73.7308 103.04 62.9951 96.8952 56.7276 87.4406L60.8631 91.4921L107.972 41.9906L122.716 26.5006C129.541 19.3309 140.799 19.1344 147.869 26.0615C151.394 29.5144 153.211 34.096 153.292 38.7188Z" fill="#9E0EB3"/>
<path d="M107.324 94.62L86.4611 116.549L70.4001 133.422C65.6187 138.446 57.7383 138.583 52.7844 133.73L6.60706 88.5005C-0.518164 81.52 -1.14003 69.8561 5.72614 62.6095C9.13806 59.0029 13.6745 57.1502 18.2313 57.0707C22.788 56.9911 27.3754 58.6737 30.9108 62.1373L56.7274 87.4298C58.4078 89.0761 59.4427 89.9937 60.8629 91.4813C67.2319 98.1487 75.9395 103.002 85.8141 102.829C94.016 102.675 101.502 99.6178 107.324 94.62Z" fill="#C930BE"/>
</g>
<path d="M173.734 29.1738H187.797L205.863 80.1992L224.174 29.1738H238.236L212.357 101H199.174L173.734 29.1738ZM252.982 26C255.326 26 257.328 26.8464 258.988 28.5391C260.681 30.2318 261.527 32.2826 261.527 34.6914C261.527 37.0677 260.697 39.1022 259.037 40.7949C257.377 42.4551 255.391 43.2852 253.08 43.2852C250.704 43.2852 248.669 42.4388 246.977 40.7461C245.316 39.0208 244.486 36.9375 244.486 34.4961C244.486 32.1523 245.316 30.1504 246.977 28.4902C248.637 26.8301 250.639 26 252.982 26ZM246.293 47.875H259.672V101H246.293V47.875ZM271.781 47.875H285.062V53.2949C288.09 50.7559 290.824 48.998 293.266 48.0215C295.74 47.0124 298.262 46.5078 300.834 46.5078C306.107 46.5078 310.583 48.347 314.262 52.0254C317.354 55.1504 318.9 59.7728 318.9 65.8926V101H305.717V77.709C305.717 71.3613 305.424 67.1458 304.838 65.0625C304.285 62.9792 303.292 61.4004 301.859 60.3262C300.46 59.2194 298.718 58.666 296.635 58.666C293.933 58.666 291.605 59.5775 289.652 61.4004C287.732 63.1908 286.397 65.681 285.648 68.8711C285.258 70.5312 285.062 74.1283 285.062 79.6621V101H271.781V47.875ZM333.451 28.2949H346.732V47.875H354.643V59.3496H346.732V101H333.451V59.3496H326.615V47.875H333.451V28.2949ZM401.078 47.875H414.359V101H401.078V95.3848C398.474 97.8587 395.854 99.6491 393.217 100.756C390.613 101.83 387.781 102.367 384.721 102.367C377.852 102.367 371.911 99.7142 366.898 94.4082C361.885 89.0697 359.379 82.4453 359.379 74.5352C359.379 66.332 361.804 59.61 366.654 54.3691C371.505 49.1283 377.396 46.5078 384.33 46.5078C387.52 46.5078 390.515 47.11 393.314 48.3145C396.114 49.5189 398.702 51.3255 401.078 53.7344V47.875ZM387.064 58.8125C382.93 58.8125 379.496 60.2773 376.762 63.207C374.027 66.1042 372.66 69.8314 372.66 74.3887C372.66 78.9785 374.044 82.7546 376.811 85.7168C379.61 88.679 383.044 90.1602 387.113 90.1602C391.312 90.1602 394.796 88.7116 397.562 85.8145C400.329 82.8848 401.713 79.0599 401.713 74.3398C401.713 69.7174 400.329 65.974 397.562 63.1094C394.796 60.2448 391.296 58.8125 387.064 58.8125ZM467.094 47.875H480.375V93.3828C480.375 102.367 478.568 108.975 474.955 113.207C470.105 118.936 462.797 121.801 453.031 121.801C447.823 121.801 443.445 121.15 439.896 119.848C436.348 118.546 433.354 116.625 430.912 114.086C428.471 111.579 426.664 108.52 425.492 104.906H440.189C441.492 106.404 443.168 107.527 445.219 108.275C447.27 109.057 449.695 109.447 452.494 109.447C456.075 109.447 458.956 108.894 461.137 107.787C463.318 106.68 464.848 105.248 465.727 103.49C466.638 101.732 467.094 98.7051 467.094 94.4082C464.75 96.752 462.292 98.4447 459.721 99.4863C457.149 100.495 454.236 101 450.98 101C443.852 101 437.829 98.4284 432.914 93.2852C427.999 88.1419 425.541 81.6315 425.541 73.7539C425.541 65.3229 428.145 58.5521 433.354 53.4414C438.074 48.819 443.705 46.5078 450.248 46.5078C453.308 46.5078 456.189 47.0775 458.891 48.2168C461.625 49.3236 464.359 51.1628 467.094 53.7344V47.875ZM453.275 58.959C449.076 58.959 445.609 60.375 442.875 63.207C440.141 66.0065 438.773 69.5384 438.773 73.8027C438.773 78.2298 440.173 81.8594 442.973 84.6914C445.772 87.5234 449.288 88.9395 453.52 88.9395C457.654 88.9395 461.055 87.556 463.725 84.7891C466.426 82.0221 467.777 78.3926 467.777 73.9004C467.777 69.4733 466.426 65.8763 463.725 63.1094C461.023 60.3424 457.54 58.959 453.275 58.959ZM547.074 78.2949H504.252C504.87 82.071 506.514 85.082 509.184 87.3281C511.885 89.5417 515.32 90.6484 519.486 90.6484C524.467 90.6484 528.747 88.9069 532.328 85.4238L543.559 90.6973C540.759 94.6686 537.406 97.6146 533.5 99.5352C529.594 101.423 524.955 102.367 519.584 102.367C511.251 102.367 504.464 99.7467 499.223 94.5059C493.982 89.2324 491.361 82.6406 491.361 74.7305C491.361 66.625 493.965 59.903 499.174 54.5645C504.415 49.1934 510.974 46.5078 518.852 46.5078C527.217 46.5078 534.021 49.1934 539.262 54.5645C544.503 59.903 547.123 66.9668 547.123 75.7559L547.074 78.2949ZM533.695 67.7969C532.816 64.8346 531.075 62.4258 528.471 60.5703C525.899 58.7148 522.904 57.7871 519.486 57.7871C515.775 57.7871 512.52 58.8288 509.721 60.9121C507.963 62.2142 506.335 64.5091 504.838 67.7969H533.695Z" fill="url(#paint0_linear_20_2)"/>
<path d="M203.461 108.016H205.757V131H203.461V108.016ZM213.237 110.25V108.016H225.847V110.25H220.722V131H218.378V110.25H213.237ZM256.369 108.016L267.088 131H264.619L261.01 123.438H251.104L247.51 131H244.947L255.807 108.016H256.369ZM256.088 112.891L252.135 121.219H259.994L256.088 112.891ZM291.287 117.531L289.552 118.609C288.052 116.62 286.006 115.625 283.412 115.625C281.339 115.625 279.615 116.292 278.24 117.625C276.875 118.958 276.193 120.578 276.193 122.484C276.193 123.724 276.506 124.891 277.131 125.984C277.766 127.078 278.631 127.927 279.724 128.531C280.828 129.135 282.063 129.438 283.427 129.438C285.927 129.438 287.969 128.443 289.552 126.453L291.287 127.594C290.474 128.812 289.381 129.76 288.006 130.438C286.641 131.104 285.084 131.438 283.334 131.438C280.646 131.438 278.417 130.583 276.646 128.875C274.875 127.167 273.99 125.089 273.99 122.641C273.99 120.995 274.401 119.469 275.224 118.062C276.058 116.646 277.198 115.542 278.646 114.75C280.094 113.958 281.714 113.562 283.506 113.562C284.631 113.562 285.714 113.734 286.756 114.078C287.808 114.422 288.698 114.87 289.427 115.422C290.157 115.974 290.776 116.677 291.287 117.531ZM316.923 114V131H314.767V128.078C313.85 129.193 312.819 130.031 311.673 130.594C310.538 131.156 309.293 131.438 307.939 131.438C305.532 131.438 303.475 130.568 301.767 128.828C300.069 127.078 299.22 124.953 299.22 122.453C299.22 120.005 300.079 117.911 301.798 116.172C303.517 114.432 305.585 113.562 308.001 113.562C309.397 113.562 310.657 113.859 311.782 114.453C312.918 115.047 313.913 115.938 314.767 117.125V114H316.923ZM308.173 115.672C306.954 115.672 305.829 115.974 304.798 116.578C303.767 117.172 302.944 118.01 302.329 119.094C301.725 120.177 301.423 121.323 301.423 122.531C301.423 123.729 301.73 124.875 302.345 125.969C302.96 127.062 303.782 127.917 304.814 128.531C305.855 129.135 306.97 129.438 308.157 129.438C309.355 129.438 310.491 129.135 311.564 128.531C312.637 127.927 313.46 127.109 314.032 126.078C314.616 125.047 314.907 123.885 314.907 122.594C314.907 120.625 314.256 118.979 312.954 117.656C311.663 116.333 310.069 115.672 308.173 115.672ZM343.309 107.438V131H341.153V128.078C340.236 129.193 339.205 130.031 338.059 130.594C336.924 131.156 335.679 131.438 334.325 131.438C331.919 131.438 329.861 130.568 328.153 128.828C326.455 127.078 325.606 124.953 325.606 122.453C325.606 120.005 326.466 117.911 328.184 116.172C329.903 114.432 331.971 113.562 334.387 113.562C335.783 113.562 337.044 113.859 338.169 114.453C339.304 115.047 340.299 115.938 341.153 117.125V107.438H343.309ZM334.559 115.672C333.341 115.672 332.216 115.974 331.184 116.578C330.153 117.172 329.33 118.01 328.716 119.094C328.111 120.177 327.809 121.323 327.809 122.531C327.809 123.729 328.117 124.875 328.731 125.969C329.346 127.062 330.169 127.917 331.2 128.531C332.242 129.135 333.356 129.438 334.544 129.438C335.742 129.438 336.877 129.135 337.95 128.531C339.023 127.927 339.846 127.109 340.419 126.078C341.002 125.047 341.294 123.885 341.294 122.594C341.294 120.625 340.643 118.979 339.341 117.656C338.049 116.333 336.455 115.672 334.559 115.672ZM367.071 125.359L368.914 126.328C368.31 127.516 367.612 128.474 366.821 129.203C366.029 129.932 365.138 130.49 364.149 130.875C363.159 131.25 362.039 131.438 360.789 131.438C358.018 131.438 355.852 130.531 354.289 128.719C352.727 126.896 351.946 124.839 351.946 122.547C351.946 120.391 352.607 118.469 353.93 116.781C355.607 114.635 357.852 113.562 360.664 113.562C363.56 113.562 365.873 114.661 367.602 116.859C368.831 118.411 369.456 120.349 369.477 122.672H354.196C354.237 124.651 354.867 126.276 356.086 127.547C357.305 128.807 358.81 129.438 360.602 129.438C361.466 129.438 362.305 129.286 363.117 128.984C363.94 128.682 364.638 128.281 365.211 127.781C365.784 127.281 366.404 126.474 367.071 125.359ZM367.071 120.781C366.779 119.615 366.352 118.682 365.789 117.984C365.237 117.286 364.503 116.724 363.586 116.297C362.67 115.87 361.706 115.656 360.696 115.656C359.029 115.656 357.597 116.193 356.399 117.266C355.524 118.047 354.862 119.219 354.414 120.781H367.071ZM378.035 114H380.207V116.938C380.967 115.854 381.748 115.062 382.551 114.562C383.655 113.896 384.816 113.562 386.035 113.562C386.858 113.562 387.639 113.724 388.379 114.047C389.118 114.37 389.722 114.802 390.191 115.344C390.66 115.875 391.066 116.641 391.41 117.641C392.139 116.307 393.051 115.297 394.144 114.609C395.238 113.911 396.415 113.562 397.676 113.562C398.853 113.562 399.889 113.859 400.785 114.453C401.691 115.047 402.363 115.875 402.801 116.938C403.238 118 403.457 119.594 403.457 121.719V131H401.222V121.719C401.222 119.896 401.092 118.646 400.832 117.969C400.571 117.281 400.123 116.729 399.488 116.312C398.863 115.896 398.113 115.688 397.238 115.688C396.176 115.688 395.202 116 394.316 116.625C393.441 117.25 392.801 118.083 392.394 119.125C391.988 120.167 391.785 121.906 391.785 124.344V131H389.613V122.297C389.613 120.245 389.483 118.854 389.222 118.125C388.972 117.385 388.53 116.797 387.894 116.359C387.259 115.911 386.504 115.688 385.629 115.688C384.618 115.688 383.67 115.995 382.785 116.609C381.91 117.214 381.259 118.031 380.832 119.062C380.415 120.094 380.207 121.672 380.207 123.797V131H378.035V114ZM410.734 114H413.046L418.89 127.094L424.562 114H426.89L416.749 137.219H414.437L417.718 129.719L410.734 114Z" fill="black"/>
<defs>
<linearGradient id="paint0_linear_20_2" x1="361.5" y1="0" x2="361.5" y2="123" gradientUnits="userSpaceOnUse">
<stop stop-color="#9E0EB3"/>
<stop offset="1" stop-color="#C930BE"/>
</linearGradient>
<clipPath id="clip0_20_2">
<rect width="153" height="115" fill="white" transform="translate(0 23.3439) rotate(-1)"/>
</clipPath>
</defs>
</svg>
